<svg xmlns="http://www.w3.org/2000/svg" viewBox="332.271 239.422 18.83 20.911" width="18.83px"
    height="20.911px">
    <path
        d="M 351.101 253.688 L 332.275 253.688 L 332.275 255.754 L 351.101 255.754 L 351.101 253.688 Z"
        fill="#CFFF71" transform="matrix(1, 0, 0, 1, 0, 1.4210854715202004e-14)"></path>
    <path
        d="M 335.459 258.709 L 334.849 260.329 L 332.271 260.329 L 334.078 255.754 L 334.583 256.078 C 335.459 256.639 335.822 257.735 335.455 258.705 L 335.459 258.709 Z"
        fill="#CFFF71" transform="matrix(1, 0, 0, 1, 0, 1.4210854715202004e-14)"></path>
    <path
        d="M 351.101 260.329 L 348.422 260.329 L 347.822 258.766 C 347.439 257.767 347.828 256.639 348.746 256.091 L 349.303 255.757 L 351.099 260.333 L 351.099 260.329 L 351.101 260.329 Z"
        fill="#CFFF71" transform="matrix(1, 0, 0, 1, 0, 1.4210854715202004e-14)"></path>
    <path
        d="M 349.303 255.755 L 346.693 255.755 L 345.911 253.69 L 341.642 242.379 L 341.6 242.379 L 337.345 253.688 L 336.57 255.754 L 334.08 255.754 L 334.893 253.688 L 339.456 242.132 L 341.547 242.132 L 340.527 239.422 L 342.898 239.422 L 348.494 253.688 L 349.305 255.754 L 349.303 255.755 Z"
        fill="#CFFF71" transform="matrix(1, 0, 0, 1, 0, 1.4210854715202004e-14)"></path>
</svg>