<svg xmlns="http://www.w3.org/2000/svg" viewBox="550.058 116.4944 27.231 28.9996" width="27.231px"
    height="28.9996px">
    <path
        d="M 577.288 116.496 C 577.283 116.792 577.276 117.087 577.257 117.383 C 577.089 120.095 576.078 122.747 574.396 124.882 C 573.751 125.724 572.963 126.439 572.221 127.193 C 567.75 131.666 563.277 136.136 558.806 140.61 C 557.516 141.884 556.777 143.679 556.775 145.49 C 554.537 145.491 552.298 145.492 550.061 145.489 C 550.066 145.232 550.072 144.977 550.082 144.721 C 550.25 141.492 551.629 138.344 553.888 136.031 C 558.769 131.148 563.653 126.268 568.533 121.384 C 569.828 120.109 570.569 118.311 570.573 116.496 C 572.811 116.495 575.049 116.493 577.288 116.496 Z"
        fill="black" transform="matrix(1, 0, 0, 1, 0, 1.4210854715202004e-14)"></path>
    <path
        d="M 576.923 142.344 C 577.166 143.374 577.284 144.432 577.289 145.49 C 575.05 145.494 572.811 145.484 570.572 145.494 C 570.564 144.127 570.158 142.761 569.384 141.631 C 568.486 140.291 567.102 139.302 565.558 138.85 C 567.25 137.163 568.934 135.47 570.628 133.785 C 573.765 135.635 576.097 138.795 576.923 142.344 Z"
        fill="black" transform="matrix(1, 0, 0, 1, 0, 1.4210854715202004e-14)"></path>
    <path
        d="M 561.791 123.135 C 560.1 124.823 558.414 126.515 556.721 128.201 C 553.952 126.562 551.798 123.913 550.774 120.86 C 550.299 119.457 550.063 117.977 550.058 116.496 C 552.298 116.495 554.536 116.496 556.776 116.495 C 556.78 118.056 557.321 119.608 558.306 120.82 C 559.193 121.926 560.43 122.738 561.791 123.135 Z"
        fill="black" transform="matrix(1, 0, 0, 1, 0, 1.4210854715202004e-14)"></path>
    <path
        d="M 560.314 116.495 C 560.309 116.984 560.41 117.475 560.631 117.923 C 561.302 119.434 563.179 120.242 564.738 119.682 C 566.098 119.262 567.036 117.893 567.039 116.495 L 560.314 116.495 Z"
        fill="black" transform="matrix(1, 0, 0, 1, 0, 1.4210854715202004e-14)"></path>
    <path
        d="M 567.039 145.491 C 567.041 145.181 566.998 144.87 566.904 144.568 C 566.785 144.149 566.584 143.755 566.315 143.414 C 565.336 142.113 563.37 141.74 561.98 142.588 C 560.943 143.164 560.326 144.326 560.315 145.491 L 567.039 145.491 Z"
        fill="black" transform="matrix(1, 0, 0, 1, 0, 1.4210854715202004e-14)"></path>
</svg>