<svg viewBox="-628.2362 31.7057 462.32 462.32" width="462.32px" height="462.32px"
    xmlns="http://www.w3.org/2000/svg">
    <defs></defs>
    <linearGradient id="_1207685592_1_" gradientUnits="userSpaceOnUse" x1="183.6585" y1="410.5854"
        x2="645.979" y2="410.5854">
        <stop offset="0" style="stop-color:#0194FE"></stop>
        <stop offset="1" style="stop-color:#2ADFF3"></stop>
    </linearGradient>
    <path id="_1207685592" class="st0"
        d="M191.14,387.73c10.11,0,20.22,0,30.34,0c4.25,0,7.69,3.44,7.69,7.69c0,10.11,0,20.22,0,30.34   c0,4.04-3.44,7.48-7.69,7.48c-10.11,0-20.22,0-30.34,0c-4.04,0-7.48-3.44-7.48-7.48c0-10.11,0-20.22,0-30.34   C183.66,391.17,187.1,387.73,191.14,387.73z M254.64,431.62c8.7,0,17.39,0,26.29,0c3.64,0,6.47,2.83,6.47,6.47   c0,8.9,0,17.59,0,26.49c0,3.64-2.83,6.47-6.47,6.47c-8.9,0-17.59,0-26.29,0c-3.64,0-6.67-2.83-6.67-6.47c0-8.9,0-17.59,0-26.49   C247.97,434.45,251,431.62,254.64,431.62z M322.8,450.83c7.48,0,14.97,0,22.45,0c3.03,0,5.66,2.63,5.66,5.66   c0,7.48,0,14.97,0,22.45c0,3.03-2.63,5.46-5.66,5.46c-7.48,0-14.97,0-22.45,0c-3.03,0-5.46-2.43-5.46-5.46c0-7.48,0-14.97,0-22.45   C317.34,453.46,319.77,450.83,322.8,450.83z M272.64,236.46c7.28,7.08,14.36,14.16,21.44,21.24c3.03,3.03,3.03,7.89,0,10.72   c-7.08,7.28-14.16,14.36-21.44,21.44c-2.83,3.03-7.69,3.03-10.72,0c-7.08-7.08-14.16-14.16-21.44-21.44   c-2.83-2.83-2.83-7.69,0-10.72c7.28-7.08,14.36-14.16,21.44-21.24C264.96,233.42,269.81,233.42,272.64,236.46z M286.6,312.09   c6.27,6.27,12.54,12.34,18.61,18.61c2.63,2.63,2.63,6.88,0,9.3c-6.07,6.27-12.34,12.54-18.61,18.61c-2.63,2.63-6.67,2.63-9.3,0   c-6.27-6.07-12.34-12.34-18.61-18.61c-2.63-2.43-2.63-6.67,0-9.3c6.27-6.27,12.34-12.34,18.61-18.61   C279.92,309.47,283.97,309.47,286.6,312.09z M321.18,373.98c5.46,5.46,10.72,10.72,15.98,15.98c2.22,2.22,2.22,5.66,0,7.89   c-5.26,5.26-10.52,10.52-15.98,15.77c-2.02,2.22-5.66,2.22-7.89,0c-5.26-5.26-10.52-10.52-15.77-15.77c-2.22-2.22-2.22-5.66,0-7.89   c5.26-5.26,10.52-10.52,15.77-15.98C315.52,371.96,319.16,371.96,321.18,373.98z M437.47,186.91c0,10.11,0,20.22,0,30.34   c0,4.25-3.44,7.69-7.48,7.69c-10.11,0-20.22,0-30.34,0c-4.25,0-7.69-3.44-7.69-7.69c0-10.11,0-20.22,0-30.34   c0-4.04,3.44-7.48,7.69-7.48c10.11,0,20.22,0,30.34,0C434.03,179.43,437.47,182.86,437.47,186.91z M393.79,250.41   c0,8.7,0,17.39,0,26.29c0,3.64-3.03,6.47-6.67,6.47c-8.7,0-17.59,0-26.29,0c-3.64,0-6.67-2.83-6.67-6.47c0-8.9,0-17.59,0-26.29   c0-3.64,3.03-6.67,6.67-6.67c8.7,0,17.59,0,26.29,0C390.75,243.74,393.79,246.77,393.79,250.41z M374.37,318.57   c0,7.48,0,14.97,0,22.45c0,3.03-2.43,5.66-5.46,5.66c-7.48,0-14.97,0-22.45,0c-3.03,0-5.66-2.63-5.66-5.66c0-7.48,0-14.97,0-22.45   c0-3.03,2.63-5.46,5.66-5.46c7.48,0,14.97,0,22.45,0C371.94,313.11,374.37,315.53,374.37,318.57z M588.95,268.41   c-7.08,7.28-14.36,14.36-21.44,21.44c-3.03,3.03-7.69,3.03-10.72,0c-7.08-7.08-14.36-14.16-21.44-21.44   c-2.83-2.83-2.83-7.69,0-10.72c7.08-7.08,14.36-14.16,21.44-21.24c3.03-3.03,7.69-3.03,10.72,0c7.08,7.08,14.36,14.16,21.44,21.24   C591.98,260.73,591.98,265.58,588.95,268.41z M513.31,282.37c-6.27,6.27-12.54,12.54-18.81,18.61c-2.43,2.63-6.67,2.63-9.3,0   c-6.07-6.07-12.34-12.34-18.61-18.61c-2.63-2.63-2.63-6.67,0-9.3c6.27-6.27,12.54-12.34,18.61-18.61c2.63-2.63,6.88-2.63,9.3,0   c6.27,6.27,12.54,12.34,18.81,18.61C515.74,275.69,515.74,279.74,513.31,282.37z M451.22,316.95   c-5.26,5.46-10.52,10.72-15.77,15.98c-2.22,2.22-5.86,2.22-8.09,0c-5.26-5.26-10.52-10.52-15.77-15.98c-2.22-2.02-2.22-5.66,0-7.89   c5.26-5.26,10.52-10.52,15.77-15.77c2.22-2.22,5.86-2.22,8.09,0c5.26,5.26,10.52,10.52,15.77,15.77   C453.45,311.29,453.45,314.93,451.22,316.95z M638.29,433.24c-10.11,0-20.22,0-30.13,0c-4.25,0-7.69-3.44-7.69-7.48   c0-10.11,0-20.22,0-30.34c0-4.25,3.44-7.69,7.69-7.69c9.91,0,20.02,0,30.13,0c4.25,0,7.69,3.44,7.69,7.69c0,10.11,0,20.22,0,30.34   C645.98,429.8,642.54,433.24,638.29,433.24z M574.99,389.55c-8.7,0-17.59,0-26.29,0c-3.64,0-6.67-3.03-6.67-6.67   c0-8.7,0-17.59,0-26.29c0-3.64,3.03-6.67,6.67-6.67c8.7,0,17.59,0,26.29,0c3.64,0,6.67,3.03,6.67,6.67c0,8.7,0,17.59,0,26.29   C581.67,386.52,578.63,389.55,574.99,389.55z M506.64,370.14c-7.48,0-14.97,0-22.45,0c-3.03,0-5.46-2.43-5.46-5.46   c0-7.48,0-14.97,0-22.45c0-3.03,2.43-5.66,5.46-5.66c7.48,0,14.97,0,22.45,0c3.03,0,5.66,2.63,5.66,5.66c0,7.48,0,14.97,0,22.45   C512.3,367.71,509.67,370.14,506.64,370.14z M556.79,584.71c-7.08-7.08-14.36-14.36-21.44-21.44c-2.83-2.83-2.83-7.69,0-10.72   c7.08-7.08,14.36-14.36,21.44-21.44c3.03-2.83,7.69-2.83,10.72,0c7.08,7.08,14.36,14.36,21.44,21.44c3.03,3.03,3.03,7.89,0,10.72   c-7.08,7.08-14.36,14.36-21.44,21.44C564.48,587.75,559.82,587.75,556.79,584.71z M542.84,509.08   c-6.07-6.27-12.34-12.54-18.61-18.81c-2.43-2.43-2.43-6.67,0-9.3c6.27-6.07,12.54-12.34,18.61-18.61c2.63-2.63,6.88-2.63,9.51,0   c6.07,6.27,12.34,12.54,18.61,18.61c2.43,2.63,2.43,6.88,0,9.3c-6.27,6.27-12.54,12.54-18.61,18.81   C549.71,511.5,545.47,511.5,542.84,509.08z M508.25,446.99c-5.26-5.26-10.52-10.52-15.77-15.77c-2.22-2.22-2.22-5.86,0-7.89   c5.26-5.46,10.52-10.72,15.77-15.98c2.22-2.22,5.66-2.22,7.89,0c5.26,5.26,10.72,10.52,15.98,15.98c2.02,2.02,2.02,5.66,0,7.89   c-5.26,5.26-10.72,10.52-15.98,15.77C513.92,449.21,510.48,449.21,508.25,446.99z M391.97,634.06c0-10.11,0-20.22,0-30.13   c0-4.25,3.44-7.69,7.69-7.69c10.11,0,20.22,0,30.34,0c4.04,0,7.48,3.44,7.48,7.69c0,9.91,0,20.02,0,30.13   c0,4.25-3.44,7.69-7.48,7.69c-10.11,0-20.22,0-30.34,0C395.4,641.75,391.97,638.31,391.97,634.06z M435.85,570.76   c0-8.7,0-17.59,0-26.29c0-3.64,2.83-6.67,6.47-6.67c8.9,0,17.59,0,26.49,0c3.64,0,6.47,3.03,6.47,6.67c0,8.7,0,17.59,0,26.29   c0,3.64-2.83,6.67-6.47,6.67c-8.9,0-17.59,0-26.49,0C438.68,577.43,435.85,574.4,435.85,570.76z M455.06,502.4   c0-7.48,0-14.97,0-22.45c0-3.03,2.63-5.46,5.66-5.46c7.48,0,14.97,0,22.45,0c3.03,0,5.46,2.43,5.46,5.46c0,7.48,0,14.97,0,22.45   c0,3.03-2.43,5.66-5.46,5.66c-7.48,0-14.97,0-22.45,0C457.69,508.07,455.06,505.44,455.06,502.4z M240.49,552.56   c7.28-7.08,14.36-14.36,21.44-21.44c3.03-2.83,7.89-2.83,10.72,0c7.28,7.08,14.36,14.36,21.44,21.44c3.03,3.03,3.03,7.89,0,10.72   c-7.08,7.08-14.16,14.36-21.44,21.44c-2.83,3.03-7.69,3.03-10.72,0c-7.08-7.08-14.16-14.36-21.44-21.44   C237.66,560.45,237.66,555.59,240.49,552.56z M316.33,538.6c6.27-6.07,12.34-12.34,18.61-18.61c2.63-2.43,6.88-2.43,9.3,0   c6.27,6.27,12.54,12.54,18.61,18.61c2.63,2.63,2.63,6.88,0,9.51c-6.07,6.07-12.34,12.34-18.61,18.61c-2.43,2.43-6.67,2.43-9.3,0   c-6.27-6.27-12.34-12.54-18.61-18.61C313.7,545.48,313.7,541.23,316.33,538.6z M378.21,504.02c5.46-5.26,10.72-10.52,15.98-15.77   c2.22-2.22,5.66-2.22,7.89,0c5.26,5.26,10.52,10.52,15.77,15.77c2.22,2.22,2.22,5.86,0,7.89c-5.26,5.26-10.52,10.72-15.77,15.98   c-2.22,2.02-5.66,2.02-7.89,0c-5.26-5.26-10.52-10.72-15.98-15.98C376.19,509.89,376.19,506.24,378.21,504.02z"
        style="fill: url(#_1207685592_1_);"
        transform="matrix(1, 0, 0, 1, -811.8961912974146, -147.7243521768503)"></path>
</svg>