<svg viewBox="-167.637 -60.728 321.277 368.086" width="321.277" height="368.086"
    xmlns="http://www.w3.org/2000/svg">
    <defs></defs>
    <path fill-rule="evenodd" clip-rule="evenodd"
        d="M -6.998 -22.55 L -133.189 50.383 L -133.189 196.248 L -6.998 269.18 L 119.192 196.248 L 119.192 50.383 L -6.998 -22.55 Z M -1.698 -59.306 C -4.978 -61.202 -9.018 -61.202 -12.298 -59.306 L -162.337 27.41 C -165.616 29.306 -167.637 32.808 -167.637 36.599 L -167.637 210.031 C -167.637 213.822 -165.616 217.325 -162.337 219.22 L -12.298 305.936 C -9.018 307.832 -4.978 307.832 -1.698 305.936 L 148.341 219.22 C 151.62 217.325 153.64 213.822 153.64 210.031 L 153.64 36.599 C 153.64 32.808 151.62 29.306 148.341 27.41 L -1.698 -59.306 Z"
        fill="#FF9211"></path>
    <path
        d="M -6.998 30.283 L -87.482 76.799 L -87.482 169.831 L -7.528 216.041 C -7.2 216.231 -6.998 216.581 -6.998 216.96 L -6.998 232.888 C -6.998 233.705 -7.881 234.216 -8.588 233.807 L -99.406 181.318 C -101.866 179.896 -103.381 177.269 -103.381 174.426 L -103.381 72.204 C -103.381 69.361 -101.866 66.734 -99.406 65.313 L -10.973 14.202 C -8.513 12.78 -5.483 12.78 -3.023 14.202 L 88.158 66.71 C 88.859 67.114 88.865 68.124 88.17 68.537 C 82.789 71.732 80.033 73.153 74.013 76.505 C 73.687 76.687 73.288 76.685 72.965 76.498 L -6.998 30.283 Z"
        fill="#FF9211"></path>
    <path
        d="M 6.251 125.279 C 6.251 124.887 6.467 124.526 6.813 124.342 L 86.839 81.703 C 87.545 81.327 88.396 81.839 88.396 82.64 L 88.396 186.367 C 88.396 186.746 88.195 187.095 87.869 187.285 L 7.843 233.8 C 7.137 234.211 6.251 233.7 6.251 232.883 L 6.251 125.279 Z"
        fill="#FF9211"></path>
</svg>