<svg viewBox="-285.6122 -188.569 788.5424 667.211" width="788.5424" height="667.211"
    style="fill: rgb(139, 92, 246);" xmlns="http://www.w3.org/2000/svg">
    <defs></defs>
    <path
        d="M -170.82 222.795 L -167.638 280.762 C -167.43 284.71 -165.95 288.425 -163.453 291.468 C -145.998 312.6 -67.741 386.332 108.611 386.332 C 284.963 386.332 362.273 313.552 380.375 291.862 C 383.103 288.588 384.675 284.524 384.929 280.251 L 388.084 222.835 C 409.079 211.315 430.753 198.298 430.753 198.298 C 464.83 179.836 502.861 206.356 502.93 245.254 C 503.046 308.188 453.872 372.863 387.543 413.619 C 312.753 459.576 201.112 478.642 108.659 478.642 C 16.206 478.642 -95.435 459.576 -170.225 413.619 C -236.554 372.863 -285.728 308.211 -285.612 245.254 C -285.543 206.356 -247.512 179.836 -213.435 198.298 C -213.435 198.298 -191.798 211.283 -170.82 222.795 Z"
        transform="matrix(0.9999999999999999, 0, 0, 0.9999999999999999, 0, 0)"></path>
    <path
        d="M 108.636 -188.569 C 252.829 -188.569 291.924 -185.201 350.553 -178.467 L 350.53 -178.467 C 377.556 -175.355 399.219 -155.244 397.207 -128.004 L 375.611 166.19 C 368.853 168.148 361.483 170.621 353.218 173.395 C 309.9 187.933 241.992 210.722 108.635 210.722 C -24.722 210.722 -92.629 187.933 -135.948 173.395 C -144.221 170.618 -151.598 168.143 -158.362 166.184 L -179.958 -128.004 C -181.946 -155.244 -160.353 -175.843 -133.281 -178.467 C -75.368 -184.087 -15.073 -188.569 108.636 -188.569 Z M -148.014 307.153 L -147.938 308.187 L -146.448 308.53 C -146.981 308.066 -147.503 307.607 -148.014 307.153 Z M 363.845 308.496 L 365.188 308.187 L 365.257 307.246 C 364.795 307.659 364.324 308.075 363.845 308.496 Z"
        transform="matrix(0.9999999999999999, 0, 0, 0.9999999999999999, 0, 0)"></path>
</svg>