<svg width="24" height="24" viewBox="0 0 24 24" fill="none" xmlns="http://www.w3.org/2000/svg">
  <g clip-path="url(#clip0_13461_137017)">
    <path fill-rule="evenodd" clip-rule="evenodd"
      d="M12 24.0005C5.4 24.0005 0 18.6005 0 11.9405C0.06 5.34049 5.4 -0.0595048 12.06 0.000495214C18.66 0.0604952 24 5.40049 24 12.1205C23.94 18.6605 18.6 24.0005 12 24.0005Z"
      fill="#0090FF" />
    <path fill-rule="evenodd" clip-rule="evenodd"
      d="M13.14 10.5615L12.78 12.4815L16.2 12.9615L15.96 13.8615L12.6 13.3815C12.36 14.1615 12.24 15.0015 11.94 15.7215C11.64 16.5615 11.34 17.4015 10.98 18.1815C10.5 19.2015 9.65999 19.9215 8.51999 20.1015C7.85999 20.2215 7.13999 20.1615 6.59999 19.7415C6.41999 19.6215 6.23999 19.3815 6.23999 19.2015C6.23999 18.9615 6.35999 18.6615 6.53999 18.5415C6.65999 18.4815 6.95999 18.5415 7.13999 18.6015C7.31999 18.7815 7.49999 19.0215 7.61999 19.2615C7.97999 19.7415 8.45999 19.8015 8.93999 19.4415C9.47999 18.9615 9.77999 18.3015 9.95999 17.6415C10.32 16.2015 10.68 14.8215 10.98 13.3815V13.1415L7.79999 12.6615L7.91999 11.7615L11.22 12.2415L11.64 10.3815L8.21999 9.84146L8.33999 8.88146L11.88 9.36146C12 9.00146 12.06 8.70146 12.18 8.40146C12.48 7.32146 12.78 6.24146 13.5 5.28146C14.22 4.32146 15.06 3.72146 16.32 3.78146C16.86 3.78146 17.4 3.96146 17.76 4.38146C17.82 4.44146 17.94 4.56146 17.94 4.68146C17.94 4.92146 17.94 5.22146 17.76 5.40146C17.52 5.58146 17.22 5.52146 16.98 5.28146C16.8 5.10146 16.68 4.92146 16.5 4.74146C16.14 4.26146 15.6 4.20146 15.18 4.62146C14.88 4.92146 14.58 5.34146 14.4 5.76146C13.98 7.02146 13.68 8.34146 13.26 9.66146L16.56 10.1415L16.32 11.0415L13.14 10.5615Z"
      fill="white" />
  </g>
  <defs>
    <clipPath id="clip0_13461_137017">
      <rect width="24" height="24" fill="white" />
    </clipPath>
  </defs>
</svg>