<svg xmlns="http://www.w3.org/2000/svg" viewBox="0 0 425.2 425.2">
  <defs>
    <style>.cls-1{fill:#e61e57;}.cls-2{fill:#fff;}</style>
  </defs>
  <circle class="cls-1" cx="212.6" cy="212.6" r="212.6" />
  <g>
    <path class="cls-2"
      d="M260.31,188.32l-96.74-.07c-26.37,0-48.31,20.86-49,47.66-.02,.72,.57,1.31,1.29,1.31l96.74,.06h0c26.37,.01,48.31-20.84,49-47.65,.02-.72-.57-1.31-1.29-1.31Z" />
    <path class="cls-2"
      d="M309.34,114.88l-145.77-.07c-26.37,0-48.31,20.86-49,47.66-.02,.72,.57,1.31,1.29,1.31l145.77,.06h0c26.37,.01,48.31-20.84,49-47.65,.02-.72-.57-1.31-1.29-1.31Z" />
    <circle class="cls-2" cx="139.08" cy="285.88" r="24.51"
      transform="translate(-98.81 74.99) rotate(-22.5)" />
  </g>
</svg>