<svg viewBox="377.1963 155.5962 34.1795 42.9996" width="34.1795" height="42.9996"
    xmlns="http://www.w3.org/2000/svg">
    <defs></defs>
    <path d="M0 33.438L17.0896 23.8438L34.1792 33.4628L17.0896 42.9996L0 33.438Z" fill="#0A0A0A"
        transform="matrix(1, 0, 0, 1, 377.19626416558407, 155.59619372481396)"></path>
    <path d="M0 9.59375L17.0896 19.132V38.1309L0 28.7729V9.59375Z" fill="#3E7CB1"
        transform="matrix(1, 0, 0, 1, 377.19626416558407, 155.59619372481396)"></path>
    <path d="M34.1795 9.61914L17.0898 19.1559V38.1563L34.1795 28.7983V9.61914Z" fill="#30C5FF"
        transform="matrix(1, 0, 0, 1, 377.19626416558407, 155.59619372481396)"></path>
    <path d="M0 9.59423L17.0896 0L34.1792 9.6191L17.0896 19.1558L0 9.59423Z" fill="#41EEF9"
        transform="matrix(1, 0, 0, 1, 377.19626416558407, 155.59619372481396)"></path>
</svg>