<svg xmlns="http://www.w3.org/2000/svg" viewBox="526.362 236.5599 26.88 26.8802" width="26.88px"
    height="26.8802px">
    <path
        d="M 542.386 236.564 C 542.248 236.539 542.117 236.63 542.093 236.771 L 540.425 246.408 L 539.18 246.408 L 537.511 236.771 C 537.487 236.63 537.357 236.539 537.218 236.564 C 531.294 237.732 526.753 242.87 526.378 249.151 C 526.378 249.159 526.362 249.424 526.362 249.557 C 526.362 249.573 526.362 249.59 526.362 249.598 C 526.362 249.648 526.362 249.698 526.362 249.747 C 526.362 249.764 526.362 249.78 526.362 249.805 C 526.362 249.872 526.362 249.93 526.362 249.996 C 526.362 256.658 531.033 262.201 537.226 263.428 C 537.365 263.453 537.495 263.361 537.519 263.221 L 539.188 253.584 L 540.433 253.584 L 542.093 263.229 C 542.117 263.37 542.248 263.461 542.386 263.436 C 548.31 262.259 552.843 257.122 553.226 250.841 C 553.226 250.833 553.242 250.568 553.242 250.435 C 553.242 250.418 553.242 250.402 553.242 250.394 C 553.242 250.344 553.242 250.294 553.242 250.244 C 553.242 250.228 553.242 250.211 553.242 250.186 C 553.242 250.12 553.242 250.062 553.242 249.996 C 553.25 243.334 548.579 237.79 542.386 236.564 Z"
        fill="#FF6C15" transform="matrix(1, 0, 0, 1, 0, -1.4210854715202004e-14)"></path>
</svg>