<svg xmlns="http://www.w3.org/2000/svg" width="500" height="500" viewBox="0 0 500 500" fill="none">
    <circle cx="250" cy="250" r="250" fill="#BE3144" />
    <path
        d="M256.003 56.8183C247.09 56.8018 238.285 58.7703 230.228 62.5809C222.171 66.3914 215.063 71.9483 209.422 78.8482L91.2284 222.433C83.8833 231.227 79.2087 241.94 77.7567 253.306C76.3047 264.671 78.136 276.215 83.0343 286.574C87.9325 296.932 95.6931 305.672 105.399 311.761C115.105 317.851 126.352 321.035 137.809 320.937H183.97V380.964C183.845 393.439 187.609 405.642 194.74 415.879C201.871 426.115 212.014 433.875 223.759 438.08C235.504 442.286 248.267 442.728 260.274 439.344C272.282 435.961 282.937 428.92 290.758 419.202L408.772 275.377C416.117 266.583 420.791 255.87 422.243 244.504C423.695 233.138 421.864 221.594 416.966 211.236C412.067 200.878 404.307 192.138 394.601 186.048C384.894 179.959 373.648 176.775 362.191 176.872H316.03V116.845C316.03 100.925 309.706 85.6571 298.448 74.3998C287.191 63.1425 271.923 56.8183 256.003 56.8183ZM362.191 224.894C364.545 224.803 366.874 225.406 368.888 226.629C370.902 227.851 372.511 229.64 373.516 231.771C374.52 233.902 374.876 236.281 374.538 238.613C374.2 240.944 373.183 243.125 371.615 244.883L253.662 388.528C251.942 390.693 249.527 392.198 246.825 392.789C244.124 393.379 241.302 393.019 238.835 391.769C236.731 390.696 234.972 389.051 233.761 387.023C232.551 384.994 231.938 382.666 231.992 380.304V289.063C231.992 284.78 230.291 280.673 227.262 277.645C224.234 274.617 220.127 272.916 215.845 272.916H137.809C135.455 273.007 133.126 272.404 131.112 271.181C129.098 269.958 127.489 268.17 126.484 266.039C125.479 263.908 125.124 261.528 125.462 259.197C125.8 256.865 126.817 254.685 128.385 252.927L246.338 109.282C247.86 107.213 250.004 105.686 252.457 104.926C254.91 104.165 257.543 104.212 259.967 105.058C262.392 105.904 264.482 107.506 265.929 109.628C267.376 111.749 268.105 114.279 268.008 116.845V208.747C268.008 213.029 269.709 217.136 272.738 220.165C275.766 223.193 279.873 224.894 284.155 224.894H362.191Z"
        fill="#D3D6DB" />
</svg>