<svg xmlns="http://www.w3.org/2000/svg" viewBox="0 82.156 275 275" width="275px" height="275px">
    <path
        d="M 275 219.656 C 275 143.717 213.439 82.156 137.5 82.156 C 61.561 82.156 0 143.717 0 219.656 C 0 295.595 61.561 357.156 137.5 357.156 C 213.439 357.156 275 295.595 275 219.656 Z M 157.125 322.563 C 157.125 331.891 149.469 339.473 138.602 339.691 C 138.301 339.694 138 339.695 137.698 339.696 L 137.302 339.696 C 71.097 339.589 17.46 285.886 17.46 219.656 C 17.46 153.36 71.204 99.616 137.5 99.616 C 137.857 99.616 138.215 99.618 138.571 99.621 C 150.834 99.839 157.125 107.421 157.125 116.749 C 157.125 126.242 148.733 133.227 139.843 133.227 C 130.952 133.227 130.516 133.227 122.006 133.909 C 113.495 134.591 104.695 141.577 104.695 151.042 C 104.695 160.563 112.43 168.23 122.006 168.23 L 197.48 168.23 C 207.028 168.23 214.762 175.898 214.762 185.363 C 214.762 194.828 207.028 202.495 197.48 202.495 L 81.23 202.495 C 71.654 202.495 63.919 210.191 63.919 219.684 C 63.919 229.149 71.654 236.817 81.23 236.817 L 139.843 236.817 C 149.391 236.817 157.125 244.484 157.125 253.977 C 157.125 263.442 149.391 271.11 139.843 271.11 L 122.006 271.11 C 112.43 271.11 104.695 278.777 104.695 288.242 C 104.695 297.735 112.622 304.665 122.006 305.375 C 122.745 305.431 123.422 305.482 124.045 305.53 C 127.347 305.781 129.151 305.919 130.958 305.994 C 133.134 306.085 135.314 306.085 140.119 306.085 C 149.667 306.085 157.125 313.098 157.125 322.563 Z"
        fill-rule="evenodd" clip-rule="evenodd" fill="#7132f5"
        transform="matrix(0.9999999999999999, 0, 0, 0.9999999999999999, -7.105427357601002e-15, -7.105427357601002e-15)"></path>
</svg>