<svg xmlns="http://www.w3.org/2000/svg" viewBox="54.227 88.798 275 275" width="275px" height="275px">
    <path fill-rule="evenodd" clip-rule="evenodd"
        d="M 329.227 226.298 C 329.227 150.359 267.666 88.798 191.727 88.798 C 115.788 88.798 54.227 150.359 54.227 226.298 C 54.227 302.237 115.788 363.798 191.727 363.798 C 267.666 363.798 329.227 302.237 329.227 226.298 Z M 211.352 329.205 C 211.352 338.533 203.696 346.115 192.829 346.333 C 192.528 346.336 192.227 346.337 191.925 346.338 L 191.529 346.338 C 125.324 346.231 71.687 292.528 71.687 226.298 C 71.687 160.002 125.431 106.259 191.727 106.259 C 192.084 106.259 192.442 106.26 192.798 106.264 C 205.061 106.482 211.352 114.064 211.352 123.391 C 211.352 132.884 202.96 139.87 194.07 139.87 C 185.179 139.87 184.743 139.87 176.233 140.552 C 167.722 141.234 158.922 148.219 158.922 157.684 C 158.922 167.205 166.657 174.873 176.233 174.873 L 251.707 174.873 C 261.255 174.873 268.989 182.54 268.989 192.005 C 268.989 201.47 261.255 209.137 251.707 209.137 L 135.457 209.137 C 125.881 209.137 118.147 216.833 118.147 226.326 C 118.147 235.791 125.881 243.459 135.457 243.459 L 194.07 243.459 C 203.618 243.459 211.352 251.126 211.352 260.619 C 211.352 270.084 203.618 277.752 194.07 277.752 L 176.233 277.752 C 166.657 277.752 158.922 285.419 158.922 294.884 C 158.922 304.377 166.849 311.307 176.233 312.017 C 176.972 312.073 177.649 312.124 178.272 312.172 C 181.574 312.423 183.378 312.561 185.185 312.636 C 187.361 312.727 189.541 312.727 194.346 312.727 C 203.894 312.727 211.352 319.74 211.352 329.205 Z"
        style="fill: rgb(112, 49, 244);"
        transform="matrix(0.9999999999999999, 0, 0, 0.9999999999999999, -7.105427357601002e-15, -7.105427357601002e-15)"></path>
</svg>