<svg viewBox="217.541 159.6507 58.1416 56.0004" width="58.1416" height="56.0004"
    xmlns="http://www.w3.org/2000/svg">
    <defs>
        <linearGradient id="paint0_linear_204_15632" x1="-5" y1="5.50002" x2="49" y2="59.5"
            gradientUnits="userSpaceOnUse"
            gradientTransform="matrix(1, 0, 0, 1, 219.683109, 159.650958)">
            <stop stop-color="#6D6D6D"></stop>
            <stop offset="0.3657" stop-color="white"></stop>
            <stop offset="1" stop-color="#6D6D6D"></stop>
        </linearGradient>
    </defs>
    <path
        d="M 223.825 184.178 L 217.541 184.178 L 217.541 163.814 L 224.103 163.814 C 226.079 163.814 227.769 164.222 229.174 165.037 C 230.58 165.846 231.657 167.009 232.406 168.527 C 233.155 170.038 233.53 171.848 233.53 173.956 C 233.53 176.077 233.152 177.903 232.396 179.435 C 231.64 180.959 230.54 182.133 229.095 182.955 C 227.65 183.77 225.893 184.178 223.825 184.178 Z M 220.007 181.99 L 223.666 181.99 C 225.35 181.99 226.745 181.665 227.852 181.016 C 228.959 180.366 229.784 179.441 230.328 178.241 C 230.871 177.042 231.143 175.613 231.143 173.956 C 231.143 172.312 230.875 170.897 230.338 169.71 C 229.801 168.517 228.999 167.602 227.932 166.966 C 226.864 166.323 225.535 166.001 223.944 166.001 L 220.007 166.001 L 220.007 181.99 Z M 243.751 184.496 C 242.28 184.496 241.01 184.171 239.943 183.521 C 238.882 182.865 238.064 181.95 237.487 180.777 C 236.917 179.597 236.632 178.225 236.632 176.661 C 236.632 175.096 236.917 173.717 237.487 172.524 C 238.064 171.324 238.866 170.39 239.893 169.72 C 240.927 169.044 242.134 168.706 243.513 168.706 C 244.308 168.706 245.093 168.839 245.869 169.104 C 246.645 169.369 247.351 169.8 247.987 170.396 C 248.623 170.986 249.13 171.768 249.508 172.743 C 249.886 173.717 250.075 174.917 250.075 176.342 L 250.075 177.337 L 238.302 177.337 L 238.302 175.308 L 247.689 175.308 C 247.689 174.446 247.516 173.678 247.172 173.001 C 246.834 172.325 246.35 171.792 245.72 171.401 C 245.097 171.009 244.361 170.814 243.513 170.814 C 242.578 170.814 241.769 171.046 241.086 171.51 C 240.41 171.967 239.89 172.564 239.525 173.3 C 239.161 174.036 238.978 174.824 238.978 175.666 L 238.978 177.018 C 238.978 178.172 239.177 179.15 239.575 179.952 C 239.979 180.747 240.539 181.354 241.255 181.771 C 241.971 182.182 242.803 182.388 243.751 182.388 C 244.368 182.388 244.924 182.302 245.422 182.129 C 245.925 181.95 246.36 181.685 246.724 181.334 C 247.089 180.976 247.37 180.532 247.569 180.001 L 249.836 180.638 C 249.598 181.407 249.197 182.083 248.633 182.666 C 248.07 183.243 247.374 183.694 246.545 184.018 C 245.717 184.337 244.785 184.496 243.751 184.496 Z M 265.668 168.905 L 260.021 184.178 L 257.634 184.178 L 251.987 168.905 L 254.532 168.905 L 258.748 181.075 L 258.907 181.075 L 263.123 168.905 L 265.668 168.905 Z"
        fill="white"
        transform="matrix(0.9999999999999999, 0, 0, 0.9999999999999999, -7.105427357601002e-15, -7.105427357601002e-15)"></path>
    <path
        d="M 263.668 203.635 C 279.691 199.563 279.685 175.728 263.665 171.665 C 259.606 155.639 235.758 155.652 231.701 171.668 C 215.675 175.731 215.679 199.582 231.701 203.635 C 235.764 219.661 259.612 219.652 263.668 203.635 Z M 269.894 177.046 C 277.792 184.559 274.379 198.693 264.047 201.875 C 264.173 201.071 264.242 200.257 264.248 199.443 C 274.524 195.479 274.524 179.831 264.248 175.863 C 264.239 175.053 264.17 174.239 264.04 173.432 C 266.182 174.141 268.194 175.349 269.891 177.049 L 269.894 177.046 Z M 259.511 187.65 C 261.296 185.833 262.577 183.701 263.353 181.433 C 267.794 184.212 267.797 191.088 263.353 193.867 C 262.58 191.602 261.293 189.461 259.511 187.65 Z M 258.577 196.62 C 261.485 207.212 247.324 215.245 239.751 207.19 C 234.944 202.566 235.644 194.45 240.754 190.328 C 241.413 189.685 242.782 188.287 243.428 187.65 C 245.103 185.978 247.122 183.957 248.793 182.285 C 250.626 180.49 252.55 178.178 254.994 177.286 C 254.758 178.667 254.133 180.033 253.099 181.105 C 253.042 181.162 252.976 181.222 252.919 181.279 C 250.352 183.846 247.557 186.644 244.99 189.208 C 243.92 190.281 242.381 191.814 241.312 192.886 C 237.823 196.264 237.82 202.254 241.312 205.622 C 249.702 213.747 262.107 201.667 254.222 193.069 L 254.155 192.999 L 255.717 191.438 C 257.152 192.911 258.101 194.668 258.574 196.614 L 258.577 196.62 Z M 231.184 197.746 C 222.867 194.002 222.87 181.31 231.181 177.563 C 231.254 178.336 231.377 179.106 231.556 179.866 C 225.639 183.111 225.642 192.205 231.556 195.45 C 231.377 196.207 231.254 196.977 231.184 197.75 L 231.184 197.746 Z M 230.818 192.908 C 227.494 189.659 228.096 183.935 232.007 181.437 C 232.78 183.701 234.067 185.843 235.852 187.653 C 234.067 189.47 232.786 191.602 232.01 193.873 C 231.588 193.599 231.19 193.274 230.818 192.905 L 230.818 192.908 Z M 242.328 181.178 C 241.249 180.115 240.605 178.702 240.363 177.295 C 241.643 177.822 242.842 178.595 243.889 179.617 L 242.328 181.178 Z M 240.271 175.576 C 240.318 174.838 240.473 174.103 240.738 173.403 C 242.867 174.094 244.867 175.274 246.563 176.939 L 245.005 178.497 C 243.618 177.144 241.996 176.169 240.271 175.573 L 240.271 175.576 Z M 247.68 175.825 C 245.863 174.04 243.731 172.76 241.463 171.984 C 244.242 167.543 251.118 167.54 253.897 171.984 C 251.632 172.757 249.487 174.047 247.68 175.829 L 247.68 175.825 Z M 254.051 169.678 C 245.655 161.55 233.263 173.633 241.138 182.231 L 241.208 182.304 L 239.647 183.865 C 229.62 173.217 245.081 157.936 255.613 168.117 C 259.956 172.321 259.959 179.768 255.613 183.976 C 253.048 186.54 250.254 189.334 247.686 191.902 C 245.434 194.009 243.302 196.882 240.369 198.011 C 240.605 196.627 241.233 195.277 242.261 194.198 L 242.264 194.198 C 244.892 191.574 247.746 188.723 250.374 186.092 C 251.446 185.02 252.982 183.487 254.051 182.414 C 257.543 179.043 257.54 173.044 254.051 169.678 Z M 253.039 194.132 C 253.089 194.182 253.133 194.226 253.187 194.274 C 254.168 195.349 254.774 196.655 255.001 198.014 C 253.723 197.485 252.522 196.715 251.478 195.696 L 253.039 194.135 L 253.039 194.132 Z M 255.092 199.733 C 255.048 200.475 254.893 201.206 254.625 201.907 C 252.499 201.213 250.497 200.036 248.8 198.371 L 250.358 196.813 C 251.746 198.166 253.367 199.14 255.089 199.733 L 255.092 199.733 Z M 247.611 199.554 L 247.683 199.484 C 249.5 201.27 251.632 202.55 253.9 203.326 C 251.118 207.77 244.242 207.773 241.46 203.326 C 243.7 202.56 245.803 201.304 247.607 199.554 L 247.611 199.554 Z M 265.655 181.285 C 265.087 180.717 264.466 180.244 263.804 179.863 C 263.983 179.103 264.11 178.336 264.179 177.56 C 272.49 181.31 272.49 193.993 264.179 197.743 C 264.11 196.97 263.983 196.201 263.804 195.441 C 268.86 192.602 269.825 185.335 265.652 181.285 L 265.655 181.285 Z M 237.076 165.442 C 252.26 151.334 272.641 173.775 257.284 187.653 C 256.035 188.902 254.297 190.64 253.048 191.889 C 249.225 195.381 245.847 200.339 240.747 201.903 C 240.476 201.206 240.325 200.472 240.281 199.73 C 241.974 199.14 243.57 198.188 244.939 196.873 C 248.856 192.955 252.922 188.893 256.839 184.975 C 261.694 180.134 261.64 171.772 256.729 167 C 244.561 155.45 227.131 172.69 238.527 184.982 L 236.969 186.54 C 231.25 180.856 231.301 171.075 237.079 165.442 L 237.076 165.442 Z M 225.469 198.261 C 217.571 190.751 220.984 176.608 231.323 173.432 C 231.197 174.236 231.127 175.05 231.115 175.863 C 220.836 179.828 220.839 195.488 231.118 199.446 C 231.124 200.26 231.194 201.074 231.323 201.878 C 229.178 201.165 227.169 199.964 225.466 198.261 L 225.469 198.261 Z M 237.079 209.868 C 230.809 203.793 231.462 193.208 238.082 187.653 C 239.331 186.404 241.069 184.666 242.318 183.414 C 246.144 179.926 249.513 174.958 254.619 173.4 C 254.887 174.1 255.042 174.832 255.086 175.573 C 253.316 176.182 251.635 177.21 250.241 178.607 C 247.674 181.175 244.879 183.973 242.312 186.537 C 239.855 189.079 236.647 191.596 235.6 195.062 C 231.036 207.559 247.412 217.888 256.723 208.303 C 261.637 203.528 261.69 195.17 256.833 190.328 L 258.391 188.77 C 271.809 203.159 251.336 223.43 237.07 209.868 L 237.079 209.868 Z"
        fill="url(#paint0_linear_204_15632)"
        transform="matrix(0.9999999999999999, 0, 0, 0.9999999999999999, -7.105427357601002e-15, -7.105427357601002e-15)"></path>
</svg>