<svg viewBox="-12.642 207.8033 32.5756 38.4987" width="32.5756" height="38.4987"
    xmlns="http://www.w3.org/2000/svg">
    <defs></defs>
    <path
        d="M 0.08 246.217 L 5.104 240.572 C 5.189 240.487 5.132 240.346 4.991 240.346 L -0.541 240.346 C -0.584 240.339 -0.623 240.32 -0.654 240.29 L -5.339 235.04 C -5.367 234.984 -5.396 234.927 -5.367 234.87 L 2.479 221.407 C 2.507 221.351 2.507 221.294 2.479 221.267 L -0.767 215.677 C -0.823 215.593 -0.964 215.593 -1.021 215.677 L -12.621 235.606 C -12.649 235.659 -12.649 235.723 -12.621 235.775 L -3.308 246.245 C -3.28 246.274 -3.252 246.302 -3.195 246.302 L -0.034 246.302 C -0.006 246.274 0.051 246.246 0.079 246.217 L 0.08 246.217 Z"
        fill="#0C152E" transform="matrix(0.9999999999999999, 0, 0, 0.9999999999999999, 0, 0)"></path>
    <path
        d="M 3.523 207.888 L 0.249 213.476 C 0.221 213.533 0.221 213.589 0.249 213.617 L 3.636 219.432 L 12.612 234.842 C 12.64 234.899 12.64 234.956 12.584 235.012 L 7.842 240.318 L 2.789 246.02 C 2.705 246.105 2.761 246.246 2.902 246.246 L 10.467 246.246 C 10.509 246.239 10.549 246.219 10.58 246.189 L 19.894 235.718 C 19.922 235.661 19.95 235.605 19.922 235.548 L 3.749 207.888 C 3.721 207.775 3.579 207.775 3.523 207.888 Z"
        fill="#0C152E" transform="matrix(0.9999999999999999, 0, 0, 0.9999999999999999, 0, 0)"></path>
</svg>