<svg width="35" height="36" viewBox="0 0 35 36" fill="none" xmlns="http://www.w3.org/2000/svg">
<rect y="0.5" width="35" height="35" rx="17.5" fill="#FF7D34"/>
<path d="M17.0507 20.2765V27.8338C17.0507 27.8476 17.0507 27.8615 17.0507 27.8753C17.05 28.0076 17.0327 28.0205 16.9053 27.9792C16.623 27.888 16.3409 27.7964 16.0592 27.7044C15.712 27.5911 15.3654 27.4762 15.0175 27.3653C14.9875 27.359 14.9599 27.3442 14.938 27.3228C14.9161 27.3013 14.9007 27.274 14.8937 27.2441C14.7694 26.7987 14.6416 26.3544 14.5134 25.9099C14.3789 25.442 14.2429 24.9745 14.1086 24.5065C13.9961 24.115 13.8867 23.7228 13.7736 23.3314C13.6006 22.7307 13.4253 22.1307 13.2527 21.53C13.1269 21.0921 13.0051 20.6531 12.8796 20.2151C12.7082 19.6177 12.5334 19.0211 12.3619 18.4237C12.2343 17.9792 12.1112 17.533 11.9833 17.0884C11.801 16.4545 11.6154 15.8216 11.4324 15.1878C11.2216 14.458 11.0118 13.728 10.803 12.9977C10.7921 12.9541 10.7873 12.9093 10.7886 12.8644C10.7879 11.2934 10.7879 9.72243 10.7886 8.15139C10.792 8.11494 10.7987 8.07888 10.8088 8.0437C10.8467 8.05276 10.8833 8.06675 10.9176 8.08532C12.1829 9.00436 13.4475 9.92428 14.7115 10.8451C15.443 11.3771 16.1752 11.9083 16.9081 12.4385C16.9555 12.4675 16.9942 12.509 17.0199 12.5584C17.0456 12.6078 17.0574 12.6632 17.054 12.7188C17.0495 15.2377 17.0485 17.7568 17.0507 20.2763" fill="white"/>
<path d="M24.2002 8.0001C24.2034 8.06647 24.2072 8.10708 24.2072 8.1477C24.2072 9.71537 24.2117 11.283 24.2017 12.8506C24.1846 13.0427 24.1426 13.2317 24.0769 13.413C23.9565 13.8449 23.8283 14.2745 23.7038 14.7052C23.5765 15.1456 23.4497 15.5862 23.3233 16.027C23.1771 16.5377 23.0329 17.049 22.8861 17.5596C22.7337 18.0897 22.578 18.6187 22.4262 19.149C22.2533 19.7526 22.0842 20.3573 21.9113 20.9609C21.7096 21.6637 21.5049 22.3651 21.3032 23.0684C21.0901 23.811 20.878 24.5538 20.667 25.297C20.4839 25.937 20.2988 26.5765 20.117 27.2165C20.1086 27.2514 20.0907 27.2833 20.0653 27.3087C20.04 27.3341 20.0082 27.352 19.9733 27.3605C19.3498 27.5614 18.7265 27.7635 18.1036 27.9667C17.9755 28.0084 17.9576 27.9979 17.9549 27.8664C17.9539 27.8249 17.9543 27.7834 17.9543 27.7419C17.9543 22.7379 17.9533 17.7339 17.9511 12.7299C17.9465 12.6678 17.959 12.6056 17.9872 12.5501C18.0154 12.4946 18.0582 12.4479 18.1109 12.415C19.6806 11.2805 21.248 10.1427 22.8131 9.00164C23.2433 8.68901 23.6733 8.37624 24.103 8.06334C24.1272 8.04576 24.1534 8.03051 24.2002 8" fill="white"/>
<path d="M21.5791 25.3176L24.8514 13.8616L24.9039 13.8313C24.9144 13.8638 24.9287 13.8949 24.9466 13.924C25.9886 15.2368 27.0313 16.5488 28.0745 17.8602C28.0972 17.8853 28.1124 17.9162 28.1184 17.9495C28.1244 17.9828 28.121 18.0171 28.1085 18.0486C27.9944 18.4284 27.8911 18.8116 27.7828 19.1933C27.6699 19.5913 27.5547 19.9888 27.4419 20.3869C27.3722 20.6326 27.3024 20.8781 27.238 21.1251C27.2144 21.2326 27.1513 21.3271 27.0613 21.39C26.3602 21.8935 25.6642 22.4041 24.9661 22.9118C24.1144 23.5314 23.2625 24.1507 22.4105 24.7694C22.176 24.9399 21.9414 25.1103 21.7068 25.2806C21.6776 25.3017 21.6455 25.3187 21.6147 25.3377L21.5792 25.3184" fill="white"/>
<path d="M13.3968 25.3536C13.3537 25.3266 13.3161 25.3059 13.2815 25.2809C12.1929 24.4895 11.1045 23.6978 10.0164 22.9058C9.30746 22.3902 8.5991 21.8737 7.89127 21.3566C7.84093 21.3168 7.80403 21.2626 7.78559 21.2011C7.60056 20.5574 7.42157 19.9118 7.23925 19.2675C7.12375 18.859 7.00638 18.4511 6.88712 18.0438C6.87716 18.0148 6.87526 17.9836 6.8816 17.9536C6.88794 17.9236 6.90229 17.8959 6.92312 17.8734C7.7666 16.8141 8.60901 15.754 9.45035 14.6931C9.63508 14.4605 9.81965 14.2277 10.0041 13.9949C10.0378 13.9525 10.0737 13.9117 10.1084 13.8704C10.1891 13.9368 13.3991 25.2152 13.3968 25.3537" fill="white"/>
</svg>
