<svg xmlns="http://www.w3.org/2000/svg" viewBox="381.166 203.3 32 32" width="32px" height="32px">
    <path
        d="M 381.166 203.3 C 390.002 203.3 397.166 210.463 397.166 219.3 C 388.329 219.3 381.166 212.136 381.166 203.3 Z"
        fill="#30BF54" transform="matrix(1, 0, 0, 1, -5.684341886080802e-14, 0)"></path>
    <path
        d="M 413.166 235.3 C 404.329 235.3 397.166 228.136 397.166 219.3 C 406.002 219.3 413.166 226.463 413.166 235.3 Z"
        fill="#30BF54" transform="matrix(1, 0, 0, 1, -5.684341886080802e-14, 0)"></path>
    <path
        d="M 397.166 219.3 C 397.166 214.881 400.747 211.3 405.166 211.3 C 405.166 215.718 401.584 219.3 397.166 219.3 Z"
        fill="#30BF54" transform="matrix(1, 0, 0, 1, -5.684341886080802e-14, 0)"></path>
    <path
        d="M 397.166 219.3 C 397.166 223.718 393.584 227.3 389.166 227.3 C 389.166 222.881 392.747 219.3 397.166 219.3 Z"
        fill="#30BF54" transform="matrix(1, 0, 0, 1, -5.684341886080802e-14, 0)"></path>
</svg>