<svg xmlns="http://www.w3.org/2000/svg" viewBox="519.3361 234 32 32" width="32px" height="32px">
    <defs>
        <clipPath id="__lottie_element_13">
            <path d="M0,0 L33,0 L33,67 L0,67z"></path>
        </clipPath>
        <clipPath id="__lottie_element_33">
            <path d="M0,0 L34,0 L34,34 L0,34z"></path>
        </clipPath>
        <clipPath id="__lottie_element_39">
            <path d="M0,0 L32,0 L32,32 L0,32z"></path>
        </clipPath>
    </defs>
    <g clip-path="url(#__lottie_element_13)"
        transform="matrix(1, 0, 0, 1, 518.3361283292788, 233.00001873075988)" opacity="1">
        <g clip-path="url(#__lottie_element_33)" transform="matrix(1,0,0,1,0,0)" opacity="1"
            style="display: block;">
            <g clip-path="url(#__lottie_element_39)" transform="matrix(1,0,0,1,1,1)" opacity="1"
                style="display: block;">
                <g transform="matrix(1.333299994468689,0,0,1.333299994468689,0,0)" opacity="1"
                    style="display: block;">
                    <g opacity="1" transform="matrix(1,0,0,1,0,0)">
                        <g opacity="1" transform="matrix(1,0,0,1,0,0)">
                            <path fill="rgb(130,109,249)" fill-opacity="1"
                                d=" M10.130000114440918,18.860000610351562 C8.670000076293945,18.459999084472656 4.739999771118164,11.59000015258789 5.139999866485596,10.130000114440918 C5.539999961853027,8.670000076293945 12.40999984741211,4.739999771118164 13.869999885559082,5.139999866485596 C15.329999923706055,5.539999961853027 19.260000228881836,12.40999984741211 18.860000610351562,13.869999885559082 C18.459999084472656,15.329999923706055 11.59000015258789,19.260000228881836 10.130000114440918,18.860000610351562 C10.130000114440918,18.860000610351562 10.130000114440918,18.860000610351562 10.130000114440918,18.860000610351562z M12,0 C8.539999961853027,0 0,8.539999961853027 0,12 C0,15.460000038146973 8.539999961853027,24 12,24 C15.460000038146973,24 24,15.460000038146973 24,12 C24,8.539999961853027 15.460000038146973,0 12,0 C12,0 12,0 12,0z"></path>
                        </g>
                    </g>
                </g>
                <g transform="matrix(1,0,0,1,0,0)" opacity="1" style="display: block;">
                    <path fill="rgb(0,0,0)" fill-opacity="0"
                        d=" M32,0 C32,0 0,0 0,0 C0,0 0,32 0,32 C0,32 32,32 32,32 C32,32 32,0 32,0z"></path>
                </g>
            </g>
        </g>
    </g>
</svg>