<?xml version="1.0" encoding="utf-8"?>
<svg viewBox="162.2697 124.5065 198.6654 123.1284" width="198.6654" height="123.1284" xmlns="http://www.w3.org/2000/svg">
  <defs>
    <linearGradient id="paint0_linear_935_541" x1="84.7986" y1="248.301" x2="244.089" y2="41.6483" gradientUnits="userSpaceOnUse">
      <stop offset="0.26" stop-color="#40F0C1"/>
      <stop offset="1" stop-color="#BFFD3E"/>
    </linearGradient>
    <linearGradient id="paint1_linear_935_541" x1="45.718" y1="224.329" x2="176.404" y2="22.2641" gradientUnits="userSpaceOnUse">
      <stop stop-color="#40F0C1"/>
      <stop offset="1" stop-color="#BFFD3E"/>
    </linearGradient>
  </defs>
  <mask id="mask0_935_541" style="mask-type:luminance" maskUnits="userSpaceOnUse" x="70" y="50" width="200" height="124">
    <path d="M269.474 50H70.5261V173.229H269.474V50Z" fill="white"/>
  </mask>
  <g mask="url(#mask0_935_541)" transform="matrix(1, 0, 0, 1, 91.54313796077872, 74.4148723246883)">
    <path d="M262.137 135.24C255.967 129.699 241.476 122.805 234.495 108.616C227.322 94.0508 230.649 80.7661 230.649 71.8518C230.649 59.8379 220.879 50.0916 208.83 50.0916C196.781 50.0916 187.011 59.8379 187.011 71.8518C187.011 79.3216 186.136 98.9515 183.676 109.146C182.928 112.236 181.825 113.891 180.996 115.052C177.815 119.514 168.738 124.661 159.66 118.435C157.09 116.744 154.83 113.745 153.727 110.06C151.394 102.234 154.001 79.541 153.007 69.7397C152.998 69.6575 152.989 69.5752 152.98 69.4929C152.816 67.966 152.561 66.6311 152.169 65.5248C149.453 56.5922 141.132 50.0916 131.289 50.0916C119.24 50.0916 109.47 59.8379 109.47 71.8518C109.47 78.2975 112.277 84.085 116.752 88.0714C122.922 93.612 137.413 100.506 144.395 114.696C151.558 129.26 148.231 142.545 148.231 151.459C148.231 163.473 158.002 173.22 170.05 173.22C179.182 173.22 187.011 167.615 190.256 159.661C195.442 147.848 187.002 127.112 194.339 111.651C195.779 108.616 197.383 107.08 199.005 105.608C202.386 102.563 213.041 99.1526 220.678 108.277C222.619 110.865 223.166 112.858 223.631 114.833C225.581 123.217 223.804 149.713 226.711 157.805C229.437 166.719 237.748 173.201 247.573 173.201C259.622 173.201 269.392 163.455 269.392 151.441C269.392 144.995 266.585 139.208 262.11 135.222L262.137 135.24Z" fill="url(#paint0_linear_935_541)"/>
    <path d="M92.5453 173.22C104.594 173.22 114.364 163.482 114.364 151.459C114.364 139.436 104.594 129.699 92.5453 129.699C80.4967 129.699 70.7266 139.436 70.7266 151.459C70.7266 163.482 80.4967 173.22 92.5453 173.22Z" fill="url(#paint1_linear_935_541)"/>
  </g>
</svg>