<svg width="12" height="13" viewBox="0 0 12 13" fill="none" xmlns="http://www.w3.org/2000/svg">
<mask id="mask0_851_84" style="mask-type:luminance" maskUnits="userSpaceOnUse" x="0" y="0" width="12" height="13">
<path d="M0 0.438965H12V12.8593H0V0.438965Z" fill="white"/>
</mask>
<g mask="url(#mask0_851_84)">
<path d="M6.00037 12.8605C9.31462 12.8605 12.0011 10.0798 12.0011 6.64971C12.0011 3.21959 9.31462 0.438965 6 0.438965C2.68538 0.438965 0 3.21959 0 6.64971C0 10.0798 2.6865 12.8605 6.00037 12.8605Z" fill="#0007B9"/>
<path d="M8.03038 4.56703L5.8085 3.5249L4.29688 3.88865V3.99365L6.20375 5.0414L8.03038 4.56703Z" fill="url(#paint0_linear_851_84)"/>
<path d="M8.69936 7.91016L5.95361 6.60254L3.72461 7.22504V7.37729L6.06986 8.71341L8.69936 7.91241V7.91016Z" fill="url(#paint1_linear_851_84)"/>
<path d="M4.29701 3.99328L5.80826 3.62915L7.49688 3.22303V2.16553L4.29701 2.8949V3.99328ZM8.03051 4.56665L6.20426 5.04103L3.72551 5.68453V7.37578L5.95488 6.75328L8.03051 6.1739V4.56665ZM1.09863 10.2288C1.63113 11.0088 2.33201 11.6575 3.14838 12.115L8.70101 10.2498V7.91315L6.07038 8.7149L1.09863 10.2288Z" fill="white"/>
</g>
<defs>
<linearGradient id="paint0_linear_851_84" x1="4.29688" y1="4.28353" x2="8.03038" y2="4.28353" gradientUnits="userSpaceOnUse">
<stop offset="0.17" stop-color="white"/>
<stop offset="0.84" stop-color="white" stop-opacity="0"/>
</linearGradient>
<linearGradient id="paint1_linear_851_84" x1="3.72461" y1="7.65741" x2="8.69936" y2="7.65741" gradientUnits="userSpaceOnUse">
<stop offset="0.17" stop-color="white"/>
<stop offset="0.84" stop-color="white" stop-opacity="0"/>
</linearGradient>
</defs>
</svg>
