<svg viewBox="38.075 160.178 32 32" width="32" height="32" xmlns="http://www.w3.org/2000/svg">
    <defs>
        <linearGradient id="paint0_linear_577_1102" x1="0" y1="0" x2="32" y2="32"
            gradientUnits="userSpaceOnUse"
            gradientTransform="matrix(1, 0, 0, 1, 38.075486, 160.177554)">
            <stop stop-color="#62D0FF"></stop>
            <stop offset="0.5" stop-color="#3C2EFF"></stop>
            <stop offset="1" stop-color="#CBB5FF"></stop>
        </linearGradient>
    </defs>
    <path fill-rule="evenodd" clip-rule="evenodd"
        d="M 70.075 176.178 C 70.075 185.014 62.912 192.178 54.075 192.178 C 45.239 192.178 38.075 185.014 38.075 176.178 C 38.075 167.341 45.239 160.178 54.075 160.178 C 62.912 160.178 70.075 167.341 70.075 176.178 Z M 66.075 176.178 C 66.075 182.805 60.703 188.178 54.075 188.178 C 47.448 188.178 42.075 182.805 42.075 176.178 C 42.075 169.55 47.448 164.178 54.075 164.178 C 60.703 164.178 66.075 169.55 66.075 176.178 Z M 55.075 167.178 L 45.075 177.178 L 53.075 177.178 L 53.075 185.178 L 63.075 175.178 L 55.075 175.178 L 55.075 167.178 Z"
        fill="url(#paint0_linear_577_1102)"
        transform="matrix(0.9999999999999999, 0, 0, 0.9999999999999999, -7.105427357601002e-15, -7.105427357601002e-15)"></path>
</svg>