<svg viewBox="46.7597 233.0162 24 24" width="24" height="24" xmlns="http://www.w3.org/2000/svg">
    <defs></defs>
    <path opacity="0.75" d="M9 9H6V6H9V9Z" fill="#F34242"
        transform="matrix(0.9999999999999999, 0, 0, 0.9999999999999999, 46.75974343359086, 233.0162235649857)"></path>
    <path d="M9 12H6V9H9V12Z" fill="#F34242"
        transform="matrix(0.9999999999999999, 0, 0, 0.9999999999999999, 46.75974343359086, 233.0162235649857)"></path>
    <path d="M9 15H6V12H9V15Z" fill="#F34242"
        transform="matrix(0.9999999999999999, 0, 0, 0.9999999999999999, 46.75974343359086, 233.0162235649857)"></path>
    <path opacity="0.75" d="M9 18H6V15H9V18Z" fill="#F34242"
        transform="matrix(0.9999999999999999, 0, 0, 0.9999999999999999, 46.75974343359086, 233.0162235649857)"></path>
    <path opacity="0.75" d="M18 9H15V6H18V9Z" fill="#F34242"
        transform="matrix(0.9999999999999999, 0, 0, 0.9999999999999999, 46.75974343359086, 233.0162235649857)"></path>
    <path d="M18 12H15V9H18V12Z" fill="#F34242"
        transform="matrix(0.9999999999999999, 0, 0, 0.9999999999999999, 46.75974343359086, 233.0162235649857)"></path>
    <path d="M18 15H15V12H18V15Z" fill="#F34242"
        transform="matrix(0.9999999999999999, 0, 0, 0.9999999999999999, 46.75974343359086, 233.0162235649857)"></path>
    <path opacity="0.75" d="M18 18H15V15H18V18Z" fill="#F34242"
        transform="matrix(0.9999999999999999, 0, 0, 0.9999999999999999, 46.75974343359086, 233.0162235649857)"></path>
    <path d="M12 18H9V15H12V18Z" fill="#F34242"
        transform="matrix(0.9999999999999999, 0, 0, 0.9999999999999999, 46.75974343359086, 233.0162235649857)"></path>
    <path d="M15 18H12V15H15V18Z" fill="#F34242"
        transform="matrix(0.9999999999999999, 0, 0, 0.9999999999999999, 46.75974343359086, 233.0162235649857)"></path>
    <path d="M12 9H9V6H12V9Z" fill="#F34242"
        transform="matrix(0.9999999999999999, 0, 0, 0.9999999999999999, 46.75974343359086, 233.0162235649857)"></path>
    <path d="M15 9H12V6H15V9Z" fill="#F34242"
        transform="matrix(0.9999999999999999, 0, 0, 0.9999999999999999, 46.75974343359086, 233.0162235649857)"></path>
    <path d="M12 0H9V3H12V0Z" fill="#F34242" fill-opacity="0.25"
        transform="matrix(0.9999999999999999, 0, 0, 0.9999999999999999, 46.75974343359086, 233.0162235649857)"></path>
    <path d="M15 21H12V18H15V21Z" fill="#F34242" fill-opacity="0.75"
        transform="matrix(0.9999999999999999, 0, 0, 0.9999999999999999, 46.75974343359086, 233.0162235649857)"></path>
    <path d="M21 12H18V15H21V12Z" fill="#F34242" fill-opacity="0.75"
        transform="matrix(0.9999999999999999, 0, 0, 0.9999999999999999, 46.75974343359086, 233.0162235649857)"></path>
    <path d="M6 15H3V12H6V15Z" fill="#F34242" fill-opacity="0.75"
        transform="matrix(0.9999999999999999, 0, 0, 0.9999999999999999, 46.75974343359086, 233.0162235649857)"></path>
    <path d="M15 3H12V6H15V3Z" fill="#F34242" fill-opacity="0.75"
        transform="matrix(0.9999999999999999, 0, 0, 0.9999999999999999, 46.75974343359086, 233.0162235649857)"></path>
    <path d="M15 0H12V3H15V0Z" fill="#F34242" fill-opacity="0.25"
        transform="matrix(0.9999999999999999, 0, 0, 0.9999999999999999, 46.75974343359086, 233.0162235649857)"></path>
    <path d="M12 24H9V21H12V24Z" fill="#F34242" fill-opacity="0.25"
        transform="matrix(0.9999999999999999, 0, 0, 0.9999999999999999, 46.75974343359086, 233.0162235649857)"></path>
    <path d="M15 24H12V21H15V24Z" fill="#F34242" fill-opacity="0.25"
        transform="matrix(0.9999999999999999, 0, 0, 0.9999999999999999, 46.75974343359086, 233.0162235649857)"></path>
    <path d="M24 9H21V12H24V9Z" fill="#F34242" fill-opacity="0.25"
        transform="matrix(0.9999999999999999, 0, 0, 0.9999999999999999, 46.75974343359086, 233.0162235649857)"></path>
    <path d="M24 12H21V15H24V12Z" fill="#F34242" fill-opacity="0.25"
        transform="matrix(0.9999999999999999, 0, 0, 0.9999999999999999, 46.75974343359086, 233.0162235649857)"></path>
    <path d="M3 15H0V12H3V15Z" fill="#F34242" fill-opacity="0.25"
        transform="matrix(0.9999999999999999, 0, 0, 0.9999999999999999, 46.75974343359086, 233.0162235649857)"></path>
    <path d="M3 12H0V9H3V12Z" fill="#F34242" fill-opacity="0.25"
        transform="matrix(0.9999999999999999, 0, 0, 0.9999999999999999, 46.75974343359086, 233.0162235649857)"></path>
    <path d="M12 3H9V6H12V3Z" fill="#F34242" fill-opacity="0.75"
        transform="matrix(0.9999999999999999, 0, 0, 0.9999999999999999, 46.75974343359086, 233.0162235649857)"></path>
    <path d="M12 21H9V18H12V21Z" fill="#F34242" fill-opacity="0.75"
        transform="matrix(0.9999999999999999, 0, 0, 0.9999999999999999, 46.75974343359086, 233.0162235649857)"></path>
    <path d="M21 9H18V12H21V9Z" fill="#F34242" fill-opacity="0.75"
        transform="matrix(0.9999999999999999, 0, 0, 0.9999999999999999, 46.75974343359086, 233.0162235649857)"></path>
    <path d="M6 12H3V9H6V12Z" fill="#F34242" fill-opacity="0.75"
        transform="matrix(0.9999999999999999, 0, 0, 0.9999999999999999, 46.75974343359086, 233.0162235649857)"></path>
</svg>