<svg viewBox="0.7871 0.9141 24.0194 24.0001" width="24.0194px" height="24.0001px"
  xmlns="http://www.w3.org/2000/svg">
  <defs></defs>
  <path
    d="M14.3359 19.4039C13.2293 19.6697 12.0729 19.6474 10.9773 19.3391C9.88169 19.0308 8.88332 18.4469 8.07746 17.643C7.01054 16.6241 6.3247 15.2704 6.13412 13.8073C5.94353 12.3442 6.2597 10.8599 7.02998 9.60155C7.53585 8.78128 8.14529 8.02965 8.84326 7.36522C11.0585 5.15822 15.1252 1.14338 15.1252 1.14338C12.102 0.543797 8.9641 1.13034 6.36142 2.78152C3.75874 4.4327 1.89076 7.02197 1.14441 10.013C0.398057 13.004 0.830528 16.1676 2.35224 18.8485C3.87395 21.5293 6.3683 23.5219 9.31859 24.4136L14.3359 19.4039Z"
    fill="gray"
    transform="matrix(0.9999999999999999, 0, 0, 0.9999999999999999, -7.105427357601002e-15, 0)"></path>
  <path
    d="M11.2463 6.42909C12.353 6.163 13.5094 6.18516 14.6051 6.49344C15.7007 6.80172 16.6991 7.38583 17.5048 8.18998C19.6995 10.3852 20.1279 13.6429 18.5435 16.2197C18.0367 17.0402 17.4274 17.7927 16.7302 18.459C14.5149 20.663 10.4482 24.6808 10.4482 24.6808C13.4742 25.2863 16.617 24.7029 19.2243 23.0517C21.8315 21.4005 23.7028 18.8083 24.4496 15.8134C25.1965 12.8186 24.7615 9.65102 23.235 6.96848C21.7085 4.28593 19.2077 2.29448 16.2519 1.40759L11.2463 6.42909Z"
    fill="gray"
    transform="matrix(0.9999999999999999, 0, 0, 0.9999999999999999, -7.105427357601002e-15, 0)"></path>
</svg>