<svg xmlns="http://www.w3.org/2000/svg" viewBox="-161.54 51.737 247.745 247.99" width="247.745px"
    height="247.99px">
    <path class="cls-1"
        d="M -12.405 205.807 L -12.375 205.787 C -12.375 205.787 -12.405 205.807 -12.425 205.817 C -12.415 205.817 -12.405 205.817 -12.395 205.817 L -12.405 205.807 Z"
        style="fill: rgb(245, 245, 245);"></path>
    <path class="cls-1"
        d="M -12.425 205.817 C -59.235 219.877 -97.945 240.387 -122.19 264.407 L -123.27 265.477 C -116.81 271.577 -109.75 277.037 -102.11 281.677 L -100.47 279.667 C -93.845 271.577 -86.745 263.767 -79.355 256.407 C -59.525 236.647 -36.845 219.547 -12.425 205.817 Z"
        style="fill: rgb(245, 245, 245);"></path>
    <path class="cls-1"
        d="M -7.015 184.977 L -161.54 184.977 C -159.68 210.047 -150.37 233.037 -135.75 251.737 L -135.09 251.067 C -120.08 236.257 -100.53 222.797 -76.965 211.067 C -56.305 200.777 -32.585 191.947 -7.015 184.977 Z"
        style="fill: rgb(245, 245, 245);"></path>
    <path class="cls-1"
        d="M -66.255 81.937 C -24.365 123.677 28.355 151.277 86.185 161.747 C 79.215 99.867 26.545 51.737 -37.455 51.737 C -54.355 51.737 -70.465 55.107 -85.175 61.187 C -79.205 68.377 -72.825 75.377 -66.255 81.947 L -66.255 81.937 Z"
        style="fill: rgb(245, 245, 245);"></path>
    <path class="cls-1"
        d="M -122.19 87.047 C -97.945 111.107 -59.215 131.587 -12.395 145.677 C -36.835 131.917 -59.535 114.827 -79.375 95.057 C -86.745 87.717 -93.835 79.907 -100.48 71.797 L -102.13 69.787 C -109.77 74.427 -116.83 79.877 -123.25 85.977 L -122.19 87.047 L -122.19 87.047 L -122.19 87.047 Z"
        style="fill: rgb(245, 245, 245);"></path>
    <path class="cls-1"
        d="M -66.255 269.517 C -72.855 276.087 -79.225 283.087 -85.175 290.277 C -70.485 296.357 -54.355 299.727 -37.455 299.727 C 26.545 299.727 79.215 251.587 86.205 189.687 C 28.385 200.157 -24.335 227.757 -66.235 269.497 L -66.255 269.517 Z"
        style="fill: rgb(245, 245, 245);"></path>
    <path class="cls-1"
        d="M -76.995 140.357 L -76.995 140.377 C -100.55 128.647 -120.08 115.177 -135.09 100.387 L -135.75 99.717 C -150.37 118.417 -159.68 141.407 -161.54 166.477 L -7.045 166.477 C -32.605 159.507 -56.305 150.677 -76.995 140.357 Z"
        style="fill: rgb(245, 245, 245);"></path>
</svg>