<svg xmlns="http://www.w3.org/2000/svg" viewBox="-1009.5213 14.5308 512 467.98" width="512px"
    height="467.98px">
    <g transform="matrix(1, 0, 0, 1, -1009.5212552774141, 14.530792452853802)">
        <path class="cls-2"
            d="m511.99,0H0v467.97h93.44l75.26-98.02c13.71-17.86,21.15-39.75,21.15-62.26v-145.31c0-5.5,6.76-8.25,10.69-4.34l44.94,53.03h82.9l49.47-53.96c4-3.68,10.52-.88,10.52,4.51v141.73l1.7,164.63h121.93V0Z"
            style="fill: rgb(245, 246, 247); stroke-width: 0px;"></path>
        <path class="cls-1"
            d="m388.37,161.61c0-5.39-6.52-8.19-10.52-4.51l-49.47,53.96h-82.9l-44.94-53.03c-3.93-3.9-10.69-1.16-10.69,4.34v145.31c0,22.52-7.43,44.4-21.15,62.26l-75.26,98.02h296.63l-1.7-164.63v-141.73Z"
            style="fill: rgb(30, 30, 30); stroke-width: 0px;"></path>
    </g>
</svg>