<svg viewBox="187.0982 367.1603 21 21" width="21" height="21" xmlns="http://www.w3.org/2000/svg">
    <defs></defs>
    <path fill="#F4F5FA" fill-rule="evenodd"
        d="M 1638.629 451.62 L 1644.274 445.974 L 1643.567 445.267 L 1637.918 450.916 L 1640.976 443.535 L 1640.052 443.152 L 1636.996 450.531 L 1636.996 442.545 L 1635.996 442.545 L 1635.996 450.532 L 1632.939 443.152 L 1632.015 443.535 L 1635.071 450.912 L 1629.425 445.267 L 1628.718 445.974 L 1634.364 451.62 L 1626.986 448.564 L 1626.603 449.488 L 1633.983 452.544 L 1625.996 452.544 L 1625.996 453.544 L 1633.982 453.544 L 1626.603 456.6 L 1626.986 457.524 L 1634.366 454.467 L 1628.718 460.116 L 1629.425 460.823 L 1635.071 455.178 L 1632.015 462.555 L 1632.939 462.938 L 1635.995 455.558 L 1635.995 463.545 L 1636.995 463.545 L 1636.995 455.559 L 1640.051 462.938 L 1640.975 462.555 L 1637.918 455.175 L 1643.567 460.823 L 1644.274 460.116 L 1638.626 454.467 L 1646.006 457.524 L 1646.389 456.6 L 1639.009 453.545 L 1646.996 453.545 L 1646.996 452.545 L 1639.01 452.545 L 1646.389 449.489 L 1646.006 448.565 L 1638.628 451.621 L 1638.629 451.62 Z"
        clip-rule="evenodd" transform="matrix(1, 0, 0, 1, -1438.8977265193716, -75.38471334255803)"></path>
</svg>