<svg xmlns="http://www.w3.org/2000/svg" viewBox="-242.3757 -354.4827 37.1981 35.9971"
    width="37.1981px" height="35.9971px">
    <defs>
        <linearGradient id="paint0_linear_7328_3734" x1="20.4627" y1="41.5302" x2="20.9603"
            y2="6.04689" gradientUnits="userSpaceOnUse">
            <stop stop-color="#D1102B"></stop>
            <stop offset="1" stop-color="#E73E45"></stop>
        </linearGradient>
    </defs>
    <path fill-rule="evenodd" clip-rule="evenodd"
        d="M16.5503 8.146L16.5499 8.14468V8.1467L16.5503 8.146ZM16.5503 8.146C16.7361 8.81622 16.9925 9.51064 17.3114 10.2091C17.9437 11.5887 18.6567 13.0775 19.5556 14.8934C19.7718 15.3317 20.0525 15.7943 20.4363 16.3518C21.82 18.3617 23.7471 19.1939 26.1609 18.8283C29.3424 18.3456 32.4613 17.2628 35.4306 15.6145C35.5957 15.5236 35.7523 15.4191 35.9176 15.3087L35.9619 15.2792C35.9618 15.2792 35.9618 15.2791 35.9619 15.279L35.9624 15.2776C35.9716 15.2529 36.0915 14.9318 35.5458 13.6875C34.6166 11.5726 32.9359 9.3304 32.4693 9.19506C31.6654 9.71824 30.8695 10.2899 30.0999 10.8434L30.0454 10.8838C29.7572 11.0906 29.4736 11.3021 29.1893 11.5142L29.189 11.5144L29.0677 11.6049L29.0664 11.6059L29.0662 11.606L29.0661 11.6061C28.5697 11.9774 28.0572 12.3607 27.5325 12.7159C27.2113 12.934 26.8134 13.1017 26.2801 13.2451C25.4742 13.4633 24.852 13.1219 24.6136 12.3361C24.4621 11.8291 24.3672 11.2736 24.3308 10.6797C24.2985 10.1404 24.2238 7.89622 24.2258 7.64978C24.2299 7.13671 24.2339 6.60748 24.2198 6.08834C23.6158 5.88634 20.2525 6.44992 17.9154 7.36497C16.7652 7.81539 16.5778 8.09367 16.5503 8.146ZM38.7129 25.5165C38.5755 25.5124 38.4362 25.5124 38.2968 25.5124L38.2988 25.5104C36.3697 25.573 34.6891 25.7245 32.8631 26.3467C31.6208 26.7688 30.8431 27.5708 30.6168 28.6636C30.3643 29.8796 31.1279 30.6593 31.8632 31.2956L31.9198 31.3431C31.9607 31.3776 32.0014 31.4118 32.0429 31.4451C32.2036 31.5726 32.3666 31.6977 32.5302 31.8232L32.6691 31.9299C33.1317 32.2834 33.6104 32.651 34.0548 33.0368C34.5558 33.4731 35.0103 33.9276 35.4062 34.3943C35.0628 35.2426 30.2532 38.5554 29.423 38.5089C28.4736 37.402 27.502 36.1819 26.7991 34.7518C24.9892 31.0754 24.7973 28.0233 26.1951 25.1488C26.5627 24.3954 27.0213 23.7126 27.5263 23.1773C28.7059 21.9249 30.1926 20.9574 32.0712 20.2241C34.1579 19.4081 36.3596 18.901 38.622 18.4122C38.8119 18.6122 39.1775 19.6808 39.43 21.9027C39.6482 23.8156 39.6179 25.1529 39.5108 25.5144C39.2462 25.5225 38.9755 25.5205 38.7129 25.5165ZM2.42606 20.5835C2.1978 21.5369 3.28455 27.4635 3.84812 28.3362C5.20555 28.1564 6.51449 27.6756 7.95675 27.1383C10.2959 26.2657 12.8027 24.9507 13.5561 24.4558C15.1984 23.3771 16.3174 22.2197 16.5113 20.0684C16.5253 19.9189 16.5216 19.7655 16.5176 19.6023L16.5174 19.5957C16.5174 19.5553 16.5164 19.5149 16.5154 19.4745C16.5144 19.4341 16.5134 19.3937 16.5134 19.3533V19.3493C16.5356 17.9151 16.2023 16.4345 15.5276 14.9478C14.6772 13.0753 13.7238 11.2048 12.8027 9.3989L12.7279 9.25346C12.3744 9.23932 11.0089 9.86349 9.46769 10.9684C8.29207 11.8128 7.80324 12.3885 7.7487 12.5824C8.19309 13.1076 8.63951 13.7277 9.14854 14.5296C9.66767 15.3457 10.203 16.2466 10.8312 17.3637C11.1564 17.9414 11.2352 18.4524 11.0695 18.8867C10.912 19.2968 10.5484 19.5998 9.98885 19.7876C8.88594 20.1593 7.80526 20.3936 6.77507 20.4825C5.75175 20.5713 4.71028 20.5734 3.70306 20.5754L3.70067 20.5754C3.27445 20.5754 2.84824 20.5754 2.42404 20.5835H2.42606ZM23.7453 41.2589C23.7288 41.3322 23.7123 41.4058 23.6985 41.5346H23.7006C23.042 41.9729 17.9658 42.1749 16.968 41.9547C17.0023 41.5831 17.0548 41.1993 17.17 40.8437C17.3134 40.4054 17.4811 39.961 17.6447 39.5328C17.8345 39.0338 18.0285 38.5208 18.1901 37.9996C18.4567 37.1391 18.6042 36.4281 18.6587 35.7635C18.7415 34.7414 18.2608 33.8809 17.2326 33.2042C16.4387 32.681 15.556 32.7356 14.6814 33.3618C13.9461 33.8869 13.2149 34.4687 12.5059 35.0929C12.0776 35.4686 11.6595 35.8685 11.2575 36.2564C10.9 36.6018 10.5303 36.9573 10.1546 37.2926C9.89806 37.2401 9.02745 36.6462 7.59125 35.1777C6.36109 33.9193 5.61571 32.9335 5.47432 32.6063C5.92679 32.1518 6.37927 31.7195 6.8782 31.3842C9.13249 29.8753 11.5948 28.8027 14.2006 28.1967C18.2911 27.2473 21.7957 29.3218 22.9229 33.3618C23.4622 35.2969 23.749 37.4037 23.8238 39.9873C23.8238 40.9098 23.7846 41.0838 23.7453 41.2589Z"
        fill="url(#paint0_linear_7328_3734)"
        transform="matrix(1, 0, 0, 1, -244.77075560049343, -360.53008807495354)"></path>
</svg>