<svg viewBox="89.2907 113.705 160.0266 143.2726" width="160.0266" height="143.2726"
    xmlns="http://www.w3.org/2000/svg">
    <defs></defs>
    <path
        d="M 245.955 229.44 L 218.533 192.173 C 215.555 188.124 211.144 185.698 206.446 185.163 C 205.377 185.039 204.422 184.418 203.887 183.482 C 203.343 182.546 203.285 181.41 203.715 180.416 C 205.596 176.08 205.711 171.047 203.686 166.444 L 185.135 124.058 C 182.385 117.764 176.169 113.705 169.304 113.705 C 162.439 113.705 156.223 117.773 153.473 124.058 L 134.922 166.444 C 132.907 171.047 133.012 176.08 134.893 180.416 C 135.323 181.41 135.256 182.546 134.721 183.482 C 134.177 184.418 133.232 185.039 132.162 185.163 C 127.465 185.698 123.054 188.124 120.075 192.173 L 92.653 229.44 C 88.586 234.971 88.175 242.381 91.603 248.332 C 95.04 254.272 101.666 257.624 108.483 256.87 L 154.457 251.751 C 159.451 251.197 163.757 248.59 166.564 244.788 C 167.203 243.919 168.225 243.403 169.304 243.403 C 170.383 243.403 171.395 243.919 172.044 244.788 C 174.851 248.59 179.157 251.197 184.151 251.751 L 230.124 256.87 C 236.942 257.634 243.568 254.281 247.005 248.332 C 250.433 242.381 250.022 234.971 245.955 229.44 Z M 146.914 171.763 L 165.494 129.33 C 166.163 127.811 167.662 126.827 169.313 126.827 C 170.965 126.827 172.464 127.811 173.133 129.33 L 191.713 171.763 C 192.296 173.1 192.172 174.648 191.37 175.87 C 190.568 177.093 189.212 177.828 187.741 177.828 L 150.876 177.828 C 149.416 177.828 148.05 177.093 147.248 175.87 C 146.446 174.648 146.331 173.1 146.914 171.763 Z M 156.452 236.365 C 155.794 237.673 154.514 238.552 153.063 238.713 L 107.042 243.833 C 105.399 244.015 103.795 243.212 102.965 241.78 C 102.134 240.347 102.239 238.562 103.223 237.224 L 130.673 199.919 C 131.542 198.744 132.936 198.075 134.397 198.161 C 135.857 198.238 137.175 199.05 137.91 200.32 L 137.939 200.368 L 156.319 232.21 L 156.347 232.257 C 157.083 233.528 157.121 235.075 156.462 236.374 L 156.452 236.365 Z M 173.085 221.962 C 172.302 223.309 170.87 224.149 169.304 224.149 C 167.748 224.149 166.306 223.318 165.523 221.972 L 151.402 197.512 C 150.619 196.165 150.619 194.494 151.402 193.147 C 152.185 191.801 153.617 190.96 155.183 190.96 L 183.416 190.96 C 184.973 190.96 186.414 191.782 187.197 193.138 C 187.98 194.494 187.98 196.156 187.197 197.502 L 173.085 221.962 Z M 235.654 241.78 C 234.822 243.212 233.228 244.025 231.576 243.843 L 185.555 238.723 C 184.104 238.562 182.824 237.683 182.165 236.374 C 181.506 235.066 181.544 233.519 182.28 232.257 L 182.309 232.21 L 200.688 200.368 L 200.717 200.32 C 201.452 199.05 202.77 198.238 204.231 198.161 C 205.692 198.085 207.085 198.744 207.954 199.919 L 235.405 237.224 C 236.388 238.562 236.475 240.347 235.654 241.78 Z"
        fill="#E81899" transform="matrix(1, 0, 0, 1, -3.552713678800501e-15, 0)"></path>
</svg>