<svg xmlns="http://www.w3.org/2000/svg" width="241" height="41" viewBox="0 0 241 41" fill="none">
    <path
        d="M28.7448 40.5L34.4926 30.4955L17.2492 0.5H5.74775L0 10.4986H11.5075L28.7448 40.5ZM40.2463 20.497L46 10.4986L40.2463 0.5H28.7507L23.0029 10.4986H34.4985L40.2463 20.497Z"
        fill="#03D9AF" />
    <path d="M34.4985 10.4986L40.2463 0.5H28.7507L23.0029 10.4986H34.4985Z" fill="#50FDDB" />
    <path d="M11.5075 10.4986L17.2492 0.5H5.74775L0 10.4986H11.5075Z" fill="#50FDDB" />
    <path
        d="M78.918 33.5C77.4211 33.5 76.3073 32.9276 75.5414 31.7832L62 11.6115L67.6741 8.5L78.6744 24.666C78.744 24.7732 78.8136 24.8447 78.918 24.8447C78.9876 24.8447 79.0921 24.8089 79.1617 24.666L90.1271 8.5L95.8012 11.6115L82.2599 31.7832C81.4941 32.9276 80.3801 33.5 78.918 33.5Z"
        fill="#F7F7F7" />
    <path
        d="M122.004 33.5L118.941 29.0651H101.492L98.4286 33.5L92.8187 30.3885L106.895 10.2166C107.687 9.07221 108.788 8.5 110.234 8.5C111.61 8.5 112.712 9.07221 113.538 10.2166L127.614 30.3885L122.004 33.5ZM105.312 23.5931H115.155L110.475 16.8333C110.371 16.7261 110.302 16.6545 110.234 16.6545C110.165 16.6545 110.062 16.7261 109.993 16.8333L105.312 23.5931Z"
        fill="#F7F7F7" />
    <path
        d="M156.99 33.5C155.802 33.5 154.716 33.0645 153.731 32.1575L138.348 18.2243C138.212 18.1517 138.111 18.1154 138.043 18.1517C137.975 18.2243 137.941 18.2969 137.941 18.4419V33.1008H131.591V13.3984C131.591 11.5842 131.896 10.3143 132.508 9.58858C133.119 8.86286 133.968 8.5 135.02 8.5C136.175 8.5 137.262 8.97177 138.28 9.84253L153.663 23.7394C153.765 23.8483 153.867 23.8846 153.935 23.812C154.003 23.7757 154.071 23.6668 154.071 23.5218V8.82656H160.421V28.6015C160.421 30.4521 160.081 31.722 159.47 32.4477C158.859 33.1734 158.009 33.5 156.99 33.5Z"
        fill="#F7F7F7" />
    <path
        d="M194.577 33.5L191.514 29.0651H174.064L171.001 33.5L165.392 30.3885L179.467 10.2166C180.259 9.07221 181.361 8.5 182.806 8.5C184.182 8.5 185.284 9.07221 186.11 10.2166L200.187 30.3885L194.577 33.5ZM177.884 23.5931H187.729L183.047 16.8333C182.944 16.7261 182.875 16.6545 182.806 16.6545C182.737 16.6545 182.635 16.7261 182.566 16.8333L177.884 23.5931Z"
        fill="#F7F7F7" />
    <path
        d="M232 30.0665L226.476 33.5L219.432 25.6717H209.73V32.5043H203.17V14.6846C203.17 13.0365 203.583 11.7318 204.481 10.8391C205.379 9.94642 206.656 9.5 208.349 9.5H222.539C225.854 9.5 228.237 10.1524 229.686 11.4571C231.138 12.7619 231.897 14.8219 231.897 17.5686C231.897 21.6201 230.24 24.1265 226.959 25.1566L232 30.0665ZM209.73 16.1953V19.8004H222.954C223.783 19.8004 224.404 19.6975 224.784 19.457C225.129 19.2167 225.335 18.6674 225.335 17.8433C225.335 17.0193 225.129 16.5043 224.75 16.2297C224.37 15.9892 223.783 15.8519 222.954 15.8519H210.075C209.833 15.8519 209.73 15.9892 209.73 16.1953Z"
        fill="#F7F7F7" />
</svg>