<?xml version="1.0" encoding="utf-8"?>
<svg viewBox="413.3435 294.7954 102.62 77.36" width="102.62" height="77.36"
    xmlns="http://www.w3.org/2000/svg">
    <path class="cls-1"
        d="M23.61,4.8h1.86V0H23.61A15.07,15.07,0,0,0,9.68,9.3a14.85,14.85,0,0,0-1.14,5.77V26a9.07,9.07,0,0,1-2.47,6.23A9.09,9.09,0,0,1,0,35.08l.13,2.4L0,39.88a9.08,9.08,0,0,1,6.07,2.84A9.06,9.06,0,0,1,8.54,49V61.6A15.77,15.77,0,0,0,24.27,77.36v-4.8A10.94,10.94,0,0,1,13.34,61.62V49a13.86,13.86,0,0,0-1.61-6.49,13.93,13.93,0,0,0-4.46-5,14,14,0,0,0,4.45-5A14,14,0,0,0,13.34,26V15.07A10.31,10.31,0,0,1,23.61,4.8Z"
        style="fill: rgb(255, 255, 255);"
        transform="matrix(1, 0, 0, 1, 413.3434967598839, 294.7953382550975)" />
    <path class="cls-1"
        d="M79.09,4.8H77.23V0h1.86a15.05,15.05,0,0,1,15,15.07V26a9.06,9.06,0,0,0,8.53,9.07l-.13,2.4.13,2.4A9.06,9.06,0,0,0,94.1,49V61.6A15.79,15.79,0,0,1,78.36,77.36v-4.8A11,11,0,0,0,89.3,61.62V49a13.83,13.83,0,0,1,6.06-11.47A13.94,13.94,0,0,1,89.3,26V15.07a10.33,10.33,0,0,0-.77-3.92,9.92,9.92,0,0,0-2.2-3.33,10.23,10.23,0,0,0-7.24-3Z"
        style="fill: rgb(255, 255, 255);"
        transform="matrix(1, 0, 0, 1, 413.3434967598839, 294.7953382550975)" />
    <path class="cls-1"
        d="M68.82,19.34H76L61.09,33.28a14.52,14.52,0,0,1-19.48,0L26.74,19.34h7.14L45.15,29.88a9.13,9.13,0,0,0,12.34,0Z"
        style="fill: rgb(255, 255, 255);"
        transform="matrix(1, 0, 0, 1, 413.3434967598839, 294.7953382550975)" />
    <path class="cls-1"
        d="M33.81,58H26.68L41.61,44a14.38,14.38,0,0,1,19.48,0L76,58H68.89L57.55,47.35a9.13,9.13,0,0,0-12.34,0Z"
        style="fill: rgb(255, 255, 255);"
        transform="matrix(1, 0, 0, 1, 413.3434967598839, 294.7953382550975)" />
</svg>